<svg width="90" height="108" viewBox="0 0 90 108" fill="none" xmlns="http://www.w3.org/2000/svg">
<rect y="8" width="90" height="100" rx="28" fill="#E0FFDB"/>
<path d="M52.9492 24H38.8281L32.793 24.7031L29.1016 28.4531L28.2227 33.375V63.1406L29.1016 68.0625L32.9102 71.7539L38.8281 72.457H52.9492L59.8047 71.6367L58.3398 65.3086L52.832 66.2461H39.1797L35.3125 65.6602L34.4922 62.1445V33.9609L35.0781 30.7383L39.1797 30.0938H52.5977L58.6328 31.0898L59.8047 24.8203L52.9492 24ZM53.7109 18.7266C57.6562 18.7266 61.2305 19.3125 64.4336 20.4844C67.6367 21.6562 70.3516 23.2578 72.5781 25.2891C74.8438 27.3203 76.582 29.7031 77.793 32.4375C79.0039 35.1328 79.6094 38.0039 79.6094 41.0508V76.6758C79.6094 79.7227 79.0039 82.6133 77.793 85.3477C76.582 88.043 74.8438 90.4062 72.5781 92.4375C70.3516 94.4688 67.6367 96.0703 64.4336 97.2422C61.2305 98.4141 57.6562 99 53.7109 99H35.6641C31.7188 99 28.1445 98.4141 24.9414 97.2422C21.7383 96.0703 19.0039 94.4688 16.7383 92.4375C14.5117 90.4062 12.793 88.043 11.582 85.3477C10.3711 82.6133 9.76562 79.7227 9.76562 76.6758V41.0508C9.76562 38.0039 10.3711 35.1328 11.582 32.4375C12.793 29.7031 14.5117 27.3203 16.7383 25.2891C19.0039 23.2578 21.7383 21.6562 24.9414 20.4844C28.1445 19.3125 31.7188 18.7266 35.6641 18.7266H53.7109Z" fill="#21480B"/>
</svg>
